<svg xmlns="http://www.w3.org/2000/svg" viewBox="0 0 88.7 148.02"><defs><style>.cls-2{fill:#fff}</style></defs><g id="Layer_2" data-name="Layer 2"><g id="Layer_1-2" data-name="Layer 1"><g id="Home"><g id="EK-EOS-logo"><path id="Rectangle" style="fill:#d71920" d="M0 0h88.34v125H0z"/><g id="Group"><path id="Path" class="cls-2" d="M51.62 61.06c-.2.19-3 2.73-3.28 3a4.61 4.61 0 0 0-.94 2.74v8.59a3.29 3.29 0 0 1-.7 1.79c-.21.21-1.53 1.4-1.64 1.53h.75c.24-.24 2.78-2.49 3.06-2.8A4.44 4.44 0 0 0 50 73v-8.27a3.16 3.16 0 0 1 .87-2.26c.31-.34 1.3-1.17 1.48-1.36Z"/><path id="Path-2" data-name="Path" class="cls-2" d="M52.09 83.11v3.42l1.24 1.25c.93 1 .91 2.77-2 5.62a6 6 0 0 1-4 1.9h-5.28l3.11 2.7h2.13a7.65 7.65 0 0 0 5.31-2.18 6.4 6.4 0 0 0 1.74-4.59v-4.46a3.61 3.61 0 0 0-1.24-2.62l-1.06-1"/><path id="Shape" class="cls-2" d="M31.69 71.83h-1.07a2.83 2.83 0 0 1 1.16 2.22v4.23c0 1.12.82 5.36 4.64 5.36h10.94v7a3 3 0 0 1-.7 2.14c-.28.29-1.69 1.57-1.69 1.57h.79c.33-.23 2.73-2.49 3-2.68a4.35 4.35 0 0 0 1.24-3.5V83.7l1.25-1.25c.25-.25 2.3-2.06 2.3-2.06 0 1.73.83 2.49 1.67 2.49a1.55 1.55 0 0 0 1.12-.49c.39-.38 1.69-1.55 2-1.84.87-.87 1.38-3.62-.79-3.62-1.3 0-2.86 1.9-3 2.13a5.59 5.59 0 0 1-.92-1v1.69a2.46 2.46 0 0 1-1.73.93H50V79a3.49 3.49 0 0 1 .67-2c.3-.32 1.58-1.46 1.7-1.57h-.78c-.31.23-3 2.66-3.31 3a4.8 4.8 0 0 0-.93 2.26H35a2.79 2.79 0 0 1-2.55-2.81v-3.14c0-2.6-.67-2.88-.79-2.93m25.07 9.34a1.53 1.53 0 0 1-.92-.44 9.72 9.72 0 0 1-1.07-1.24 1.88 1.88 0 0 1 1.25-.4 1.12 1.12 0 0 1 .88.31c.63.9.5 1.74-.15 1.74"/><path id="Path-3" data-name="Path" class="cls-2" d="M39.52 84.9 37.44 87c1.42 1.42 1.91 2.13 2 2.77.12-.11 2-1.7 2-2.3 0-.87-.57-1.17-2-2.58"/><path id="Shape-2" data-name="Shape" class="cls-2" d="m43.91 61-1.43 1.41c-.54.56-.38 1.78.79 2.93v3a1 1 0 0 1-.25.55 6.13 6.13 0 0 0-3.2-1.52h-2.35a4.37 4.37 0 0 0-2.79 1.44 2.27 2.27 0 0 0-.15 2.89l1.56 1.58a14.55 14.55 0 0 1 0-4.37 1.24 1.24 0 0 1 1.1-.84.82.82 0 0 1 .51.16 35.12 35.12 0 0 1 3.36 2.7l-4.38 4.59a2.27 2.27 0 0 1-1.34.61 1.59 1.59 0 0 1-1.34-.78v2.16c0 .71.95 1.42 1.86 1.42h5.82a1.87 1.87 0 0 0 1.32-.47c.25-.21 1.8-1.78 2-1.95a1.59 1.59 0 0 0 .4-1.12v-2.22a6 6 0 0 0-1.77-3.8s.34-.26.36-1.18v-2.26s.71.66.75.93c0 0 .72-.76 1.25-1.24s-.37-1.68-.79-2.09A3.74 3.74 0 0 1 43.88 61m-7.23 15.26a5.09 5.09 0 0 0 1.24-1.07l3.73-3.84a24.8 24.8 0 0 1 2.71 3.26c.32.55.67 1.65-1.1 1.65h-6.58"/><path id="Path-4" data-name="Path" class="cls-2" d="M30.39 81.13h-1.07a2.6 2.6 0 0 1 1.16 2.27v5.23a6.52 6.52 0 0 0 6.22 6.53h2.83a4.1 4.1 0 0 0 3.35-1.33 12 12 0 0 0 1-1.09 3.58 3.58 0 0 0 1.24-2.94v-1.72a3.12 3.12 0 0 0-1.24-2.49l-1-1v3.51s.72.76 1 1a1.79 1.79 0 0 1 .57 2 1.81 1.81 0 0 1-1.64 1.23h-6.3a5.54 5.54 0 0 1-5.33-5.43v-2.84c0-2.93-.79-2.93-.79-2.93"/><path id="Path-5" data-name="Path" class="cls-2" d="M35.25 84.92 33.16 87c1.43 1.43 1.92 2.13 2.06 2.79.1-.12 2-1.71 2-2.32 0-.86-.56-1.17-2-2.56"/><path id="Path-6" data-name="Path" class="cls-2" d="M13.79 98H6.57a4.27 4.27 0 0 1 1.24 3.26V110c0 2.19.89 2.27.89 2.27h7.1a2 2 0 0 0 1.46-.44 2 2 0 0 0 .72-1.34v-.83s-.51 1-2.62 1H12c-1 0-1-.87-1.07-1.63v-4.73h2.49a4.68 4.68 0 0 1 2.32.5 3.47 3.47 0 0 0-3.21-1.94H11v-1.55a4.07 4.07 0 0 0-.32-1.73h2.21a8 8 0 0 1 4.92 1s-.29-2.49-4-2.49"/><path id="Path-7" data-name="Path" class="cls-2" d="M25.05 100.82a3 3 0 0 0-2.89 2.18s0-2.11-1.91-2.11h-1.82s1.06.43 1.06 2.26V110c0 2.24.89 2.28.89 2.28h3a2.91 2.91 0 0 1-1.16-2.29v-6a1.74 1.74 0 0 1 1.8-1.17 1.67 1.67 0 0 1 1.51 1.63V110c0 2.28.89 2.28.89 2.28h3a3 3 0 0 1-1.15-2.28v-6a1.68 1.68 0 0 1 3.28.48V110c0 2.25.85 2.28.89 2.28h3A2.93 2.93 0 0 1 34.3 110v-6.12a3 3 0 0 0-3.38-3.05A2.91 2.91 0 0 0 28.2 103a3.22 3.22 0 0 0-3.15-2.15"/><path id="Path-8" data-name="Path" class="cls-2" d="M37.58 100.93h-1.83s1 .46 1 2.24V110c0 2.25.89 2.27.92 2.27h3a2.89 2.89 0 0 1-1.11-2.27v-6.52c0-2.49-1.33-2.49-2-2.49"/><path id="Path-9" data-name="Path" class="cls-2" d="M43 100.91h-1.86s1 .43 1 2.25V110c0 2.23.91 2.28.91 2.28H46a2.91 2.91 0 0 1-1.11-2.28v-5.6a1.56 1.56 0 0 1 .78-1.09 2.38 2.38 0 0 1 1.32-.37 2.23 2.23 0 0 1 1.79.83v-2a1.52 1.52 0 0 0-1.49-.81C45.4 101 45 103.2 45 103.2c-.15-1.76-.64-2.29-2-2.29"/><path id="Path-10" data-name="Path" class="cls-2" d="M62 98.33a9 9 0 0 1-2 2.25 17.08 17.08 0 0 1-2.63 1.57h1.89V110c0 2.2.92 2.2.92 2.2h3A2.83 2.83 0 0 1 62 110v-7.83h.74a3.75 3.75 0 0 1 1.77.45v-1.72H62Z"/><path id="Shape-3" data-name="Shape" class="cls-2" d="M69.41 100.82c-3.11 0-4.76 2.87-4.76 6s2 5.44 5 5.44c2.49 0 3.2-.89 3.2-.89v-1.81a2.56 2.56 0 0 1-2.31 1.44 3.16 3.16 0 0 1-1.24-.28 3.07 3.07 0 0 1-1.49-2.35c1-1.24 2.36-1 4-2.77 2.22-2.32.59-4.76-2.49-4.76m-1.75 6.34s-.38-5.25 1.59-5.4h.14c1.55 0 1.15 2.24.68 3.13-.76 1.4-1.74 1.55-2.41 2.27"/><path id="Path-11" data-name="Path" class="cls-2" d="M38.17 97.27a1.37 1.37 0 1 0 1.39 1.39 1.41 1.41 0 0 0-.41-1 1.39 1.39 0 0 0-1-.4"/><path id="Shape-4" data-name="Shape" class="cls-2" d="M52.9 100.92a5 5 0 0 0-2.81.82v2a2.49 2.49 0 0 1 2.17-1.57c1.52 0 1.63.76 1.63 1.14a1.57 1.57 0 0 1-.23 1.17c-.69 1.24-6.1 1.48-5.28 5.67a2.48 2.48 0 0 0 2.83 2.15 2.72 2.72 0 0 0 2.49-1.37c.21 1.25.85 1.35.85 1.35h3a2.87 2.87 0 0 1-1.19-2.28v-6.38c0-1.52-1.68-2.7-3.47-2.7m-1 10.07a1.32 1.32 0 0 1-.92-.47 1.34 1.34 0 0 1-.32-1c0-2.82 2.32-3.22 2.93-4v4.76a2 2 0 0 1-1.76.66"/><path id="Path-12" data-name="Path" class="cls-2" d="M77.45 100.82c-1.8 0-3.42 1.24-3.38 2.7a3.53 3.53 0 0 0 1.66 3 12.73 12.73 0 0 0 1.56 1 1.87 1.87 0 0 1 1.24 1.64 2 2 0 0 1-2.21 1.84 2.47 2.47 0 0 1-2.18-1.6v2a5.29 5.29 0 0 0 2.85.8 3.94 3.94 0 0 0 4.08-3.73 3.26 3.26 0 0 0-.71-2 10 10 0 0 0-2.93-2.18 1.86 1.86 0 0 1-.85-1.18c0-.37.16-1.14 1.68-1.14a2.49 2.49 0 0 1 2.13 1.57v-1.86a5 5 0 0 0-2.86-.89"/><path id="Shape-5" data-name="Shape" d="M0 141.89c0-3.22 2-6.23 5.31-6.23s5.4 3 5.4 6.23S8.87 148 5.31 148C2 148 0 145.21 0 141.89m5.41-5.19c-2.67 0-3.38 3.17-3.38 5.2s.71 5.1 3.38 5.1 3.3-3 3.3-5.15-.7-5.31-3.26-5.31"/><path id="Path-13" data-name="Path" d="M31.52 148c-2.49 0-4.14-1.64-4.14-4.58 0-2.37 1.39-4.59 4-4.61a5.2 5.2 0 0 1 2.24.43l-.38 1.24a2.48 2.48 0 0 0-1.63-.77c-1.88 0-2.4 2.28-2.4 3.73 0 2.07.67 3.81 2.34 3.81a2.28 2.28 0 0 0 1.69-1.06l.5 1.09a3.88 3.88 0 0 1-2.22.78"/><path id="Shape-6" data-name="Shape" d="M35.29 136.53a.82.82 0 0 1 .27-.64.9.9 0 0 1 .69-.28 1 1 0 0 1 .66.27.93.93 0 0 1 .27.65.91.91 0 0 1-.28.66.85.85 0 0 1-.65.27.92.92 0 0 1-1-.93m.18 2.41H37v6.89a3.7 3.7 0 0 0 .43 1.93H35.9a2.83 2.83 0 0 1-.43-1.88Z"/><path id="Shape-7" data-name="Shape" d="M38.69 145.72c0-3.08 5-2.83 4.63-5.09a1.25 1.25 0 0 0-1.32-1.06 2.66 2.66 0 0 0-2 1.25l-.49-1.08a3.92 3.92 0 0 1 2.62-.93c1.84 0 2.67.75 2.67 2.63V146a4.11 4.11 0 0 0 .41 1.78H43.7a3.33 3.33 0 0 1-.3-1 3.55 3.55 0 0 1-2.48 1.22 2.1 2.1 0 0 1-1.63-.61 2.07 2.07 0 0 1-.61-1.63m1.51-.11a1.42 1.42 0 0 0 .31 1 1.37 1.37 0 0 0 .94.48 2.35 2.35 0 0 0 1.79-1.24v-3.45c-1.24 1.24-3.09 1.42-3.09 3.24"/><path id="Path-14" data-name="Path" d="M48.63 147.76H47a3.06 3.06 0 0 1-.44-1.93v-8.15a3.74 3.74 0 0 0-.42-1.89h1.6a2.93 2.93 0 0 1 .44 1.89v8.15a4.14 4.14 0 0 0 .41 1.93"/><path id="Path-15" data-name="Path" d="M56.79 141.81c-1.89-1.16-2.71-2-2.71-3.3a2.92 2.92 0 0 1 3.27-2.86 8 8 0 0 1 3.39.83l-.61 1.52a3.93 3.93 0 0 0-2.49-1.36 1.67 1.67 0 0 0-1.82 1.49c0 .78.69 1.51 2.06 2.36 1.71 1 3.16 2 3.16 3.95a3.49 3.49 0 0 1-3.86 3.56 6.28 6.28 0 0 1-3.31-1l.68-1.59a3.73 3.73 0 0 0 2.69 1.59 2 2 0 0 0 2-1.88c0-1.24-.76-2.24-2.49-3.26"/><path id="Path-16" data-name="Path" d="M65.28 147.76h-1.55a2.79 2.79 0 0 1-.45-1.88v-5.94H62V139c1.86 0 2.79-2.06 2.79-2.06v2h.71a1.48 1.48 0 0 1 1.6 1.24 3.23 3.23 0 0 0-1.51-.25h-.76v6a3.6 3.6 0 0 0 .42 1.85"/><path id="Shape-8" data-name="Shape" d="M67.48 143.4c0-2.7 1.47-4.63 3.89-4.63s3.89 2 3.89 4.63-1.47 4.6-3.86 4.6-3.92-2-3.92-4.56m6 0c0-1.86-.27-3.73-2-3.73s-2.12 1.87-2.13 3.73c0 1.46.46 3.87 2.1 3.87s2-2.37 2-3.73"/><path id="Path-17" data-name="Path" d="M78.62 138.94v1.58c.42-1.16 1-1.75 2.07-1.75a1.53 1.53 0 0 1 1.24.54l-.52 1.46a1.91 1.91 0 0 0-1.32-.69 1.69 1.69 0 0 0-1.44 1.73v4.11a3.59 3.59 0 0 0 .43 1.84H77.5a2.83 2.83 0 0 1-.43-1.88v-6.94Z"/><path id="Shape-9" data-name="Shape" d="m87.93 146.09.5 1.08a3.94 3.94 0 0 1-2.49.79c-2.33 0-3.74-1.89-3.81-4.38s1.39-4.81 3.73-4.81c2 0 2.84.8 2.84 2.18 0 2.27-2.49 2-4.44 4a.41.41 0 0 0-.13.39c.28 1.24.94 1.84 2 1.84a2.46 2.46 0 0 0 1.87-1.09m-4-2.19a1.71 1.71 0 0 0 0 .32c1.57-1.63 3.24-1.76 3.24-3.39a1.2 1.2 0 0 0-.4-.91 1.24 1.24 0 0 0-.93-.34c-1.41 0-2 2.49-1.93 4.33"/><path id="Shape-10" data-name="Shape" d="M25.61 145.84V139h-5.26v-1.32c0-1 1.24-1.24 2.12-1.24a2.44 2.44 0 0 1 1.87 1l.54-1.09a4.89 4.89 0 0 0-2.49-.69 4.83 4.83 0 0 0-2.7.69 4.89 4.89 0 0 0-2.49-.69c-2 0-3.57.79-3.57 2.22V139H12a1.25 1.25 0 0 0 1.12.9h.44v6a3.11 3.11 0 0 0 .43 1.93h1.58a3.82 3.82 0 0 1-.43-1.93v-6h3.63v6a3.06 3.06 0 0 0 .45 1.93h1.58a3.7 3.7 0 0 1-.43-1.93v-6h3.73v6.1a2.79 2.79 0 0 0 .43 1.87h1.56a3.7 3.7 0 0 1-.41-1.93M15.17 139v-1.34c0-1 1.24-1.25 2.13-1.25a2.53 2.53 0 0 1 1.65.71 1.63 1.63 0 0 0-.13.69v1.24h-3.7Z"/></g></g></g></g></g></svg>